<?xml version="1.0" encoding="UTF-8"?>
<svg version="1.1" xmlns="http://www.w3.org/2000/svg" width="320" height="320">
<path d="M0 0 C3.69401841 2.11086767 5.39110986 4.12727329 7 8 C7.42638055 11.97955175 6.90381219 15.56636687 4.75390625 18.9765625 C2.93046558 21.10172357 1.00641008 23.04574962 -1 25 C-1.97170394 25.98013594 -2.9416472 26.96201945 -3.91015625 27.9453125 C-6.58575244 30.65197011 -9.286853 33.3310091 -12 36 C-11.01 36.99 -10.02 37.98 -9 39 C-3.94593833 34.84443819 0.70185183 30.37752009 5.2668457 25.69604492 C8.84201018 22.05499047 10.66846844 20.82518155 15.75 20.625 C19.49103938 20.6466558 21.6566975 20.97117312 24.5625 23.375 C28.07129921 27.15370684 28.49073291 29.54934616 28.38671875 34.58203125 C26.97451836 43.41184983 16.15392 51.02532039 10 57 C10.99 58.98 10.99 58.98 12 61 C17.30622363 56.6585443 22.12435372 51.94965334 26.91113281 47.05175781 C30.42041507 43.48364813 32.25532657 41.84585291 37.25 41.625 C40.80339568 41.64792513 42.74740032 42.10343716 45.5 44.375 C48.58581903 47.61510998 49.22982057 49.26160219 49.5 53.625 C49.5721875 54.44226563 49.644375 55.25953125 49.71875 56.1015625 C48.55710688 60.78601463 45.3077803 63.60334698 42 67 C41.31502441 67.70592285 40.63004883 68.4118457 39.92431641 69.13916016 C37.82052878 71.27706062 35.69604981 73.39182635 33.5625 75.5 C32.83095703 76.22703125 32.09941406 76.9540625 31.34570312 77.703125 C29.56610176 79.47109499 27.78419082 81.23666378 26 83 C26.38671875 83.98097656 26.7734375 84.96195312 27.171875 85.97265625 C40.69684976 120.80338276 42.76022779 157.21506318 28 192 C28.75152344 192.26554688 29.50304687 192.53109375 30.27734375 192.8046875 C37.24290778 195.86274 41.23253284 202.15572637 44 209 C46.13302516 215.39907549 46.35758593 224.09378877 43.5 230.3125 C40.5423703 235.22769757 36.19288668 241.40355666 31 244 C26.81103254 244.42794952 23.09255875 244.40377171 19.125 242.9375 C16.26425744 240.3291759 14.69729155 237.77699592 14 234 C14.32528167 228.06360945 16.21437934 224.51832143 20 220 C20.64804652 217.24580227 21 214.81977309 21 212 C18.04758066 212.31935662 17.12994201 212.84668512 15.17578125 215.15234375 C14.56089844 216.07144531 13.94601562 216.99054688 13.3125 217.9375 C9.85174498 222.91476565 6.107714 227.37454443 1.98046875 231.80859375 C0.18317144 233.79731918 -1.43188956 235.82838964 -3 238 C-2.46890625 238.4125 -1.9378125 238.825 -1.390625 239.25 C6.24755221 245.49434925 9.30426936 251.52555129 10.8125 261.26171875 C11.48974783 271.15235898 6.57704577 278.44206629 0.3671875 285.6171875 C-2.27453115 288.28909722 -4.68249585 288.24728673 -8.3125 288.375 C-12.54786464 288.35279625 -13.63677367 288.27605201 -17.125 285.625 C-19.91706883 281.71610364 -20.44122308 279.24953098 -20.43359375 274.51171875 C-19.76967253 270.66576071 -17.71405797 268.14257247 -15.3125 265.140625 C-13.69620209 262.50452007 -13.55203049 261.04225447 -14 258 C-16.58333333 255 -16.58333333 255 -20 253 C-24.48074958 253.26807903 -27.94701626 255.50054499 -31.75 257.6875 C-48.08193019 266.68289196 -67.31311092 272.35839007 -86 273 C-87.07636719 273.0515625 -88.15273437 273.103125 -89.26171875 273.15625 C-110.42331612 273.70530766 -130.37754153 268.51784042 -150 261 C-150.76183594 261.83402344 -151.52367187 262.66804688 -152.30859375 263.52734375 C-171.3525635 284.31778487 -171.3525635 284.31778487 -177 286 C-181.30206516 286.17925272 -184.21958403 285.49200137 -187.875 283.1875 C-191.03918513 279.9302506 -191.87014401 278.16870392 -192.375 273.625 C-191.56805481 265.82452982 -185.09573781 260.84795584 -179.75 255.625 C-179.00492188 254.88894531 -178.25984375 254.15289062 -177.4921875 253.39453125 C-175.66594238 251.59169953 -173.83517795 249.79373022 -172 248 C-172.99 247.01 -173.98 246.02 -175 245 C-180.30622363 249.3414557 -185.12435372 254.05034666 -189.91113281 258.94824219 C-193.63813199 262.73771846 -195.46089535 264.16664133 -200.75 264.375 C-204.49103938 264.3533442 -206.6566975 264.02882688 -209.5625 261.625 C-212.51285721 258.44769223 -213.1763668 256.96296432 -213.3125 252.75 C-213.34988281 252.00234375 -213.38726562 251.2546875 -213.42578125 250.484375 C-212.25127952 243.63131904 -205.99625467 238.75461703 -201.25 234.125 C-200.20392578 233.09246094 -200.20392578 233.09246094 -199.13671875 232.0390625 C-197.42896657 230.35470418 -195.71670557 228.67522383 -194 227 C-194.66 226.01 -195.32 225.02 -196 224 C-199.24095065 225.41920753 -201.35835505 227.13308248 -203.8203125 229.66015625 C-204.52027344 230.37107422 -205.22023438 231.08199219 -205.94140625 231.81445312 C-207.02228516 232.92723633 -207.02228516 232.92723633 -208.125 234.0625 C-209.56287561 235.53473193 -211.00287708 237.00489156 -212.4453125 238.47265625 C-213.07969238 239.12500244 -213.71407227 239.77734863 -214.36767578 240.44946289 C-217.53770129 243.46065523 -220.46819894 243.38649549 -224.671875 243.359375 C-228.59004236 242.75455722 -230.30358816 240.83123243 -233 238 C-234.17006856 235.65986288 -234.33836406 233.98542048 -234.5 231.375 C-234.60828125 230.14910156 -234.60828125 230.14910156 -234.71875 228.8984375 C-233.55865274 224.22021921 -230.29886202 221.39653606 -227 218 C-226.34064453 217.32066406 -225.68128906 216.64132813 -225.00195312 215.94140625 C-224.01098633 214.92820313 -224.01098633 214.92820313 -223 213.89453125 C-222.34128906 213.22099609 -221.68257812 212.54746094 -221.00390625 211.85351562 C-219.64673614 210.47121274 -218.27917053 209.09905333 -216.90234375 207.73632812 C-216.25394531 207.06666016 -215.60554688 206.39699219 -214.9375 205.70703125 C-214.34839844 205.1138208 -213.75929688 204.52061035 -213.15234375 203.90942383 C-211.75115915 202.01282462 -211.75115915 202.01282462 -212.22338867 199.50537109 C-212.89315729 197.34467774 -213.59873887 195.2849957 -214.48828125 193.20703125 C-227.68665987 161.43638871 -229.04265113 126.4583996 -217 94 C-216.28373852 92.61731992 -215.56708484 91.23484296 -214.85009766 89.85253906 C-212.53771778 84.66731952 -212.95834953 80.85847349 -214.01953125 75.39453125 C-214.2473101 74.04353081 -214.2473101 74.04353081 -214.47969055 72.66523743 C-214.8031587 70.75147423 -215.13717194 68.83946733 -215.48101807 66.92926025 C-216.16924626 63.04473292 -216.76947988 59.14865892 -217.37130737 55.24996948 C-218.12323681 50.39259953 -218.90811991 45.54052631 -219.6875 40.6875 C-220.01122665 38.66343687 -220.33479501 36.63934842 -220.65820312 34.61523438 C-221.43698866 29.74319749 -222.21787663 24.87150212 -223 20 C-219.79083268 20.58045924 -218.16563512 21.46376442 -215.88378906 23.77563477 C-215.30348938 24.35616104 -214.7231897 24.93668732 -214.12530518 25.5348053 C-213.51161072 26.16398361 -212.89791626 26.79316193 -212.265625 27.44140625 C-211.62759949 28.08367661 -210.98957397 28.72594696 -210.33221436 29.38768005 C-208.29765882 31.43901726 -206.27378621 33.50054273 -204.25 35.5625 C-202.87178509 36.95576234 -201.49288675 38.34834898 -200.11328125 39.74023438 C-196.73420954 43.15236865 -193.36468136 46.57367707 -190 50 C-188.02 48.35 -186.04 46.7 -184 45 C-189.18746066 38.71952924 -194.85585909 32.99523563 -200.625 27.25 C-201.57568972 26.29574114 -202.52621168 25.34131512 -203.4765625 24.38671875 C-204.3840625 23.48050781 -205.2915625 22.57429688 -206.2265625 21.640625 C-207.04721191 20.82110352 -207.86786133 20.00158203 -208.71337891 19.15722656 C-210.91977155 16.98278555 -210.91977155 16.98278555 -213.29833984 15.33496094 C-213.8598877 14.89442383 -214.42143555 14.45388672 -215 14 C-215 13.34 -215 12.68 -215 12 C-201.53161425 12.62761793 -188.27264136 14.98992503 -174.9699707 17.06420898 C-171.84921309 17.54907717 -168.72741391 18.02675375 -165.60546875 18.50390625 C-164.65947311 18.65388565 -163.71347748 18.80386505 -162.73881531 18.95838928 C-154.34903042 20.23698988 -147.59177465 20.6904079 -139.625 17.25 C-133.68978836 14.85821943 -127.81543141 13.05201404 -121.5625 11.6875 C-120.8420752 11.52862305 -120.12165039 11.36974609 -119.37939453 11.20605469 C-89.81200427 5.02495541 -60.10464902 10.5000747 -33 23 C-32.75378906 22.42854248 -32.50757813 21.85708496 -32.25390625 21.26831055 C-30.79201749 18.62376061 -29.07971414 16.83720252 -26.9375 14.70703125 C-26.14085937 13.91232422 -25.34421875 13.11761719 -24.5234375 12.29882812 C-23.69070312 11.47833984 -22.85796875 10.65785156 -22 9.8125 C-21.16726562 8.98041016 -20.33453125 8.14832031 -19.4765625 7.29101562 C-12.87388554 0.73641641 -9.49444299 -1.00158141 0 0 Z M-152 79 C-152.90298828 79.75990234 -152.90298828 79.75990234 -153.82421875 80.53515625 C-164.13712753 89.93456729 -170.68497959 102.94101085 -175 116 C-175.33902344 116.98613281 -175.67804688 117.97226563 -176.02734375 118.98828125 C-180.59959743 134.89635282 -179.40069864 153.4729914 -174 169 C-173.5875 170.1859375 -173.175 171.371875 -172.75 172.59375 C-164.78702337 193.04412179 -149.20343099 208.79107426 -129.5625 218.3125 C-107.41477404 227.98869095 -84.94368086 228.56049579 -62.2890625 220.71484375 C-40.65659775 212.14303928 -25.28254508 196.18086481 -15.1875 175.5625 C-5.74862418 153.15741761 -5.85362765 129.52717635 -15 107 C-18.93737177 98.44341891 -23.73905223 91.0259132 -30 84 C-30.99773437 82.86111328 -30.99773437 82.86111328 -32.015625 81.69921875 C-46.38687973 66.29004007 -67.97847114 56.89225756 -88.875 55.796875 C-112.90227205 55.34150541 -133.82474229 63.18020476 -152 79 Z " fill="#126AA1" transform="translate(252,16)"/>
<path d="M0 0 C13.78704997 11.46628166 23.05129489 27.21573081 26 45 C27.75833535 65.05541139 24.35790616 84.45985671 11.3515625 100.36328125 C-1.51504419 115.22580325 -17.51132256 124.1912652 -37 127 C-57.74548613 128.35014428 -76.24507292 122.50086896 -92 109 C-107.66131584 94.15163795 -115.1142298 75.15886549 -116.18359375 53.83984375 C-115.85543512 46.97644085 -114.00326485 40.54285214 -112 34 C-108.39534574 33.07626394 -105.18465726 33.01851678 -101.48022461 33.21899414 C-92.78316417 33.61710268 -86.18969336 32.32651063 -79 27 C-72.90399308 21.18702198 -69.37576378 14.42376023 -68.79296875 6.01171875 C-68.7186317 0.58511386 -69.02945663 -4.66201145 -70 -10 C-47.56426842 -20.96857988 -19.25261402 -14.64814269 0 0 Z " fill="#F9920D" transform="translate(203,101)"/>
<path d="M0 0 C8.32778326 7.12228436 13.19414314 14.19353628 14.5234375 25.09375 C15.05995666 34.69917369 11.4138419 43.78829769 5.25 51.04296875 C-1.83831565 58.08934171 -10.23751592 62.05269247 -20.23046875 62.38671875 C-29.3154778 62.08304157 -36.76823498 58.83324755 -43.73046875 53.01171875 C-51.9334755 44.21895334 -54.24483196 34.30324064 -54.13671875 22.46484375 C-53.17426217 14.28396279 -48.71413371 6.9702974 -42.65625 1.4765625 C-30.13149309 -8.05038241 -13.09554712 -9.53595634 0 0 Z " fill="#156BA0" transform="translate(178.73046875,128.98828125)"/>
</svg>
