<?xml version="1.0" encoding="UTF-8"?>
<svg version="1.1" xmlns="http://www.w3.org/2000/svg" width="218" height="218">
<path d="M0 0 C5.73572084 4.0126918 9.01009388 8.6754694 10.375 15.5 C11.12309535 22.81773273 8.82882175 27.83837567 4.625 33.75 C4.274375 34.636875 3.92375 35.52375 3.5625 36.4375 C2.286468 39.58504559 0.74113713 41.20537887 -2.3203125 42.69921875 C-9.87298052 45.2573805 -15.94407136 45.84622027 -23.375 42.75 C-28.77712824 42.91667183 -32.23700874 46.44654014 -36.1875 49.75 C-36.90164062 50.34087402 -37.61578125 50.93174805 -38.3515625 51.54052734 C-43.5395432 55.89980638 -48.20667055 60.39071928 -52.375 65.75 C-53.48875 67.11125 -53.48875 67.11125 -54.625 68.5 C-59.23037629 74.01279323 -59.23037629 74.01279323 -60.9375 80.75 C-60.43874063 83.78541146 -60.43874063 83.78541146 -59.375 86.75 C-58.26609262 101.14447073 -58.26609262 101.14447073 -62.375 106.75 C-64.32010387 108.08041737 -66.21690846 108.98637762 -68.39453125 109.8828125 C-70.60587053 110.74252895 -70.60587053 110.74252895 -72.9375 112.875 C-78.10132268 116.84717129 -83.62023397 117.22696446 -89.8828125 116.41796875 C-96.60906265 114.61516503 -101.38232364 109.19455868 -105.375 103.75 C-107.40877848 97.64866455 -107.36323417 90.99912028 -104.5 85.1875 C-103.26091283 82.98008915 -102.18585269 81.56085269 -100.375 79.75 C-100.106875 78.96625 -99.83875 78.1825 -99.5625 77.375 C-98.04107152 74.01184232 -96.47015044 72.74465251 -93.375 70.75 C-88.06742934 68.78423309 -82.64913222 67.5562456 -77.16796875 69.5546875 C-74.32409895 70.51948985 -72.39014316 70.95909453 -69.375 70.75 C-65.07954543 68.28815802 -61.4733802 65.30769388 -57.79492188 62.01269531 C-56.06632515 60.47550441 -54.25044382 59.06091568 -52.4375 57.625 C-48.81203061 54.43601219 -46.13261308 50.68845496 -43.375 46.75 C-42.74980469 45.90566406 -42.12460938 45.06132813 -41.48046875 44.19140625 C-40.84753906 43.32386719 -40.21460937 42.45632812 -39.5625 41.5625 C-38.97855469 40.76457031 -38.39460938 39.96664062 -37.79296875 39.14453125 C-36.27662238 36.5838692 -35.67201981 34.70103558 -35.375 31.75 C-36.03584583 29.41501142 -36.70311503 27.08183607 -37.375 24.75 C-37.8947975 18.304511 -37.29631536 11.24252228 -32.9765625 6.078125 C-30.92845928 4.37969794 -28.66429749 3.55245723 -26.2109375 2.57421875 C-24.07160018 1.6745567 -24.07160018 1.6745567 -21.1875 -0.375 C-14.66853328 -4.72097781 -6.62335044 -3.9442424 0 0 Z " fill="#0581AF" transform="translate(155.375,54.25)"/>
<path d="M0 0 C-0.51463257 4.21796891 -3.11310978 6.80873986 -5.8125 9.875 C-12.38234196 16.90644098 -12.38234196 16.90644098 -15.3125 25.6875 C-15.1258577 28.99863871 -15.1258577 28.99863871 -14 32 C-12.89109262 46.39447073 -12.89109262 46.39447073 -17 52 C-18.94510387 53.33041737 -20.84190846 54.23637762 -23.01953125 55.1328125 C-25.23087053 55.99252895 -25.23087053 55.99252895 -27.5625 58.125 C-32.72632268 62.09717129 -38.24523397 62.47696446 -44.5078125 61.66796875 C-51.23406265 59.86516503 -56.00732364 54.44455868 -60 49 C-62.03377848 42.89866455 -61.98823417 36.24912028 -59.125 30.4375 C-57.88591283 28.23008915 -56.81085269 26.81085269 -55 25 C-54.731875 24.21625 -54.46375 23.4325 -54.1875 22.625 C-52.66607152 19.26184232 -51.09515044 17.99465251 -48 16 C-42.69242934 14.03423309 -37.27413222 12.8062456 -31.79296875 14.8046875 C-28.94044891 15.77242444 -27.0252255 16.21728139 -24 16 C-18.26024435 12.69368914 -13.42066591 8.46328327 -8.78125 3.7421875 C-6.24943309 1.26589289 -3.56264402 0 0 0 Z " fill="#6EB2D5" transform="translate(110,109)"/>
<path d="M0 0 C5.70190045 3.33485384 9.07893624 8.11148495 11.11328125 14.30859375 C12.51381433 19.96418154 12.17660114 23.85369635 9.625 29 C6.31573849 34.46500901 1.69639198 38.35120267 -4.375 40.375 C-11.31383934 41.09458334 -16.94074199 41.09143571 -22.69140625 36.87109375 C-26.89440401 33.13617926 -30.85943147 28.84609513 -31.7109375 23.11328125 C-31.82594215 15.97149258 -30.63276597 9.98015807 -25.7265625 4.55078125 C-18.49705584 -1.96840271 -9.14011469 -4.16248107 0 0 Z " fill="#0480AE" transform="translate(117.375,17.625)"/>
<path d="M0 0 C7.05347296 3.35993138 10.65310211 9.04333294 13.2265625 16.265625 C14.48492802 22.26136659 12.35542831 27.98380888 9.5 33.2265625 C5.41036281 38.18369849 0.95754746 41.32024005 -5.5 42.2265625 C-14.27533122 42.18037655 -19.80880677 39.23273961 -25.984375 33.140625 C-30.22516615 27.78498669 -30.23372441 21.76588132 -29.5 15.2265625 C-27.35064059 7.98468677 -22.9039926 4.52227844 -16.8125 0.4140625 C-11.19145973 -1.60102741 -5.73285266 -1.77360129 0 0 Z " fill="#0481AE" transform="translate(189.5,87.7734375)"/>
<path d="M0 0 C5.42903935 3.40645606 9.12115574 7.5562944 11.6875 13.4375 C12.60275112 19.9586642 12.09019289 25.73510748 8.48828125 31.3671875 C4.40178573 36.49678248 -0.42180207 40.43470732 -7.02734375 41.28515625 C-13.77713205 41.69076757 -18.4283695 40.05405874 -23.8125 36 C-28.77310591 31.48705853 -30.59251431 26.72782256 -31.125 20.125 C-30.93758617 13.59050461 -28.51411938 7.57454859 -23.8125 3 C-16.64720811 -2.29155939 -8.36817596 -2.1949314 0 0 Z " fill="#6DB1D5" transform="translate(42.8125,94)"/>
<path d="M0 0 C6.2540263 4.32971051 8.2257331 8.57110374 9.875 15.875 C10.38566469 21.75331795 8.85760629 26.66094068 5.19140625 31.27734375 C0.03401049 36.66872344 -4.15029395 39.25873949 -11.75 39.5 C-18.27847664 39.39548005 -22.19936707 37.30120403 -27 33 C-32.20428763 27.52882583 -33.53459136 22.25261182 -33.375 14.8515625 C-32.65677491 9.39005921 -30.26648553 5.11471194 -26.25 1.3671875 C-18.39514462 -4.55781117 -8.52580633 -4.75477661 0 0 Z " fill="#6BABCD" transform="translate(119,167)"/>
<path d="M0 0 C5.69824952 1.9643297 9.31196384 5.62392767 12 11 C14.443004 17.61646918 14.18561249 23.32932854 12 30 C9.31239437 35.4785807 5.50402034 38.56459277 0 41 C-5.71842268 42.53688847 -11.57877452 42.51279682 -17 40 C-22.13804608 36.51514608 -27.1134384 32.07237016 -29 26 C-29.88671321 19.83919053 -29.53860009 14.25138361 -26.4140625 8.7890625 C-19.32522163 -0.17969198 -10.73316929 -0.9747357 0 0 Z " fill="#39AED7" transform="translate(78,55)"/>
<path d="M0 0 C5.48512682 6.09458535 6.52622429 10.53730331 6.37109375 18.66796875 C5.71848279 24.52772822 3.56179096 28.63701766 -0.76171875 32.625 C-5.75649937 36.1912531 -10.91103974 37.32096845 -17 37 C-23.74112337 35.76249909 -29.12809159 32.92762552 -33.25390625 27.28515625 C-36.50100319 21.75264612 -36.88084646 16.28520651 -36 10 C-34.39065312 4.15605913 -31.10103158 0.55023535 -26.1328125 -2.8046875 C-17.3675825 -7.71706915 -7.73208267 -6.44340223 0 0 Z " fill="#38AED8" transform="translate(159,131)"/>
<path d="M0 0 C6.33498525 2.06255334 10.35423749 6.05923134 13.76953125 11.64453125 C16.01647492 17.1041263 15.59150924 23.99478452 13.84765625 29.55078125 C11.09424224 35.06688002 7.44557216 38.62009062 1.6875 40.875 C-5.13382487 42.6353419 -11.00861421 41.98459434 -17.3125 38.875 C-22.43631753 35.49134692 -25.54709767 31.72661447 -27.3125 25.875 C-28.37840507 18.4136645 -27.17572562 13.27346744 -23.3125 6.875 C-22.9825 7.865 -22.6525 8.855 -22.3125 9.875 C-22.6425 10.535 -22.9725 11.195 -23.3125 11.875 C-23.39558638 13.25048156 -23.41986016 14.62985796 -23.41015625 16.0078125 C-23.40693359 16.81347656 -23.40371094 17.61914062 -23.40039062 18.44921875 C-23.39201172 19.29097656 -23.38363281 20.13273437 -23.375 21 C-23.36823242 22.27423828 -23.36823242 22.27423828 -23.36132812 23.57421875 C-23.34952874 25.67450909 -23.33159306 27.7747633 -23.3125 29.875 C-22.6525 29.875 -21.9925 29.875 -21.3125 29.875 C-20.9825 30.535 -20.6525 31.195 -20.3125 31.875 C-19.3225 32.205 -18.3325 32.535 -17.3125 32.875 C-16.9825 33.865 -16.6525 34.855 -16.3125 35.875 C-12.76434929 38.24043381 -11.13993868 38.14423313 -6.9375 38.125 C-5.81601563 38.13015625 -4.69453125 38.1353125 -3.5390625 38.140625 C-0.34699137 37.87783948 1.85167295 37.33634511 4.6875 35.875 C6.03160262 33.85764795 6.03160262 33.85764795 6.6875 31.875 C7.6775 31.875 8.6675 31.875 9.6875 31.875 C11.25390979 27.07787002 12.27706501 22.98456338 11.6875 17.875 C9.82625077 15.89260473 9.82625077 15.89260473 7.6875 14.875 C8.3475 14.875 9.0075 14.875 9.6875 14.875 C9.03688905 13.20200041 8.36716676 11.53640763 7.6875 9.875 C7.419375 9.1325 7.15125 8.39 6.875 7.625 C5.77092864 5.59532588 5.77092864 5.59532588 3.0625 5.125 C2.27875 5.0425 1.495 4.96 0.6875 4.875 C0.6875 3.885 0.6875 2.895 0.6875 1.875 C-1.2925 1.875 -3.2725 1.875 -5.3125 1.875 C-2.3125 -0.125 -2.3125 -0.125 0 0 Z " fill="#4D8193" transform="translate(150.3125,126.125)"/>
<path d="M0 0 C0.99 0.33 1.98 0.66 3 1 C2.25 3.375 2.25 3.375 1 6 C0.00033203 6.37318359 0.00033203 6.37318359 -1.01953125 6.75390625 C-3.33491711 7.88972381 -3.33491711 7.88972381 -3.71484375 10.94140625 C-4.57091427 21.39950264 -4.57091427 21.39950264 -1 31 C0.8966051 31.57719677 0.8966051 31.57719677 3 32 C3.96292969 32.76376953 3.96292969 32.76376953 4.9453125 33.54296875 C8.58841591 36.12638618 12.70656985 35.39401732 17 35 C21.10712226 34.01124835 23.71078194 32.58438562 27 30 C27.66 30 28.32 30 29 30 C29.12375 29.236875 29.2475 28.47375 29.375 27.6875 C30 25 30 25 32 22 C32.02477359 19.24612373 32.02477359 19.24612373 31.625 16.3125 C31.51414063 15.31863281 31.40328125 14.32476562 31.2890625 13.30078125 C31.19367188 12.54152344 31.09828125 11.78226563 31 11 C30.01 10.67 29.02 10.34 28 10 C27.87625 8.906875 27.7525 7.81375 27.625 6.6875 C27.24535199 2.92618198 27.24535199 2.92618198 25 0 C28.35066172 1.385988 29.83371851 2.7756177 31.6875 5.875 C32.10386719 6.55304687 32.52023438 7.23109375 32.94921875 7.9296875 C35.19705933 12.35851838 35.74376136 17.09636406 35 22 C32.50746165 28.88359891 28.26375531 33.33085463 22 37 C16.51694869 38.82768377 10.06946365 39.16358753 4.609375 37.09375 C-1.01607062 33.74424803 -5.43361155 29.07828844 -8 23 C-9.04637614 15.95521181 -7.65375435 10.06078846 -4 4 C-1.75 1.4375 -1.75 1.4375 0 0 Z " fill="#3F7384" transform="translate(94,20)"/>
<path d="M0 0 C0.66 0 1.32 0 2 0 C1.49254088 3.75519748 0.90704749 5.56311281 -2 8 C-7.72813214 10.79505243 -13.68454215 11.76476247 -20 11 C-21.6744239 10.3530635 -23.34302621 9.69040574 -25 9 C-28.84775295 9.41443383 -31.04327159 10.47525995 -33.98828125 12.94140625 C-34.69404297 13.52470703 -35.39980469 14.10800781 -36.12695312 14.70898438 C-36.84818359 15.32064453 -37.56941406 15.93230469 -38.3125 16.5625 C-39.42334961 17.48579102 -39.42334961 17.48579102 -40.55664062 18.42773438 C-42.37815502 19.94370442 -44.19209988 21.46784356 -46 23 C-46.33 22.34 -46.66 21.68 -47 21 C-48.65 21.66 -50.3 22.32 -52 23 C-46.62592202 14.7776607 -46.62592202 14.7776607 -43.9375 11.4375 C-41.71452464 8.64085358 -39.99827064 5.68217841 -38.24609375 2.57421875 C-37.83488281 2.05472656 -37.42367187 1.53523438 -37 1 C-36.01 1 -35.02 1 -34 1 C-33.67 2.32 -33.34 3.64 -33 5 C-26.94646143 6.62979884 -20.99487063 7.25978098 -14.75 7.375 C-14.07710937 7.40078125 -13.40421875 7.4265625 -12.7109375 7.453125 C-7.64755793 7.47313836 -4.98634078 5.98385863 -1 3 C-0.34 3 0.32 3 1 3 C0.505 1.515 0.505 1.515 0 0 Z " fill="#2C6D80" transform="translate(157,88)"/>
<path d="M0 0 C1.36125 0.37125 1.36125 0.37125 2.75 0.75 C1.5 2.25 1.5 2.25 -0.25 3.75 C-1.57 3.75 -2.89 3.75 -4.25 3.75 C-4.38277344 4.38808594 -4.51554688 5.02617188 -4.65234375 5.68359375 C-4.82894531 6.50988281 -5.00554687 7.33617188 -5.1875 8.1875 C-5.36152344 9.01121094 -5.53554687 9.83492187 -5.71484375 10.68359375 C-6.25 12.75 -6.25 12.75 -7.25 13.75 C-7.32226502 15.60287502 -7.3338122 17.45833878 -7.3125 19.3125 C-7.30347656 20.32441406 -7.29445312 21.33632812 -7.28515625 22.37890625 C-7.27355469 23.16136719 -7.26195312 23.94382812 -7.25 24.75 C-6.59 24.75 -5.93 24.75 -5.25 24.75 C-5.58 26.07 -5.91 27.39 -6.25 28.75 C-9.25 27.75 -9.25 27.75 -10.4140625 25.51953125 C-12.24189858 19.46375657 -12.2411452 13.07538007 -9.5 7.3125 C-4.97170276 -0.38243867 -4.97170276 -0.38243867 0 0 Z " fill="#3181A5" transform="translate(171.25,91.25)"/>
<path d="M0 0 C-1.875 1.0625 -1.875 1.0625 -4 2 C-4.66 1.67 -5.32 1.34 -6 1 C-6 0.34 -6 -0.32 -6 -1 C-7.15628906 -0.87431641 -7.15628906 -0.87431641 -8.3359375 -0.74609375 C-9.84027344 -0.59333984 -9.84027344 -0.59333984 -11.375 -0.4375 C-12.87160156 -0.28087891 -12.87160156 -0.28087891 -14.3984375 -0.12109375 C-17 0 -17 0 -19 -1 C-18.67 -0.01 -18.34 0.98 -18 2 C-18.928125 2.37125 -19.85625 2.7425 -20.8125 3.125 C-24.60177702 5.35398648 -25.23365176 7.06586073 -27 11 C-29 13.375 -29 13.375 -31 15 C-31.99 15 -32.98 15 -34 15 C-32.92598892 12.08482708 -32.22189824 10.22189824 -30 8 C-29.731875 7.21625 -29.46375 6.4325 -29.1875 5.625 C-27.66607152 2.26184232 -26.09515044 0.99465251 -23 -1 C-14.55284051 -4.12857759 -8.15900185 -3.10819118 0 0 Z " fill="#6A94A7" transform="translate(85,126)"/>
<path d="M0 0 C0.99 0.33 1.98 0.66 3 1 C2.25 3.375 2.25 3.375 1 6 C-0.00353516 6.36351562 -0.00353516 6.36351562 -1.02734375 6.734375 C-1.67832031 7.15203125 -2.32929687 7.5696875 -3 8 C-3.74778409 11.20113703 -3.74778409 11.20113703 -3.8125 14.875 C-3.88082031 16.10992187 -3.94914062 17.34484375 -4.01953125 18.6171875 C-4.00367885 21.36282388 -3.84894633 23.42075849 -3 26 C-3.99 26.33 -4.98 26.66 -6 27 C-8.63935522 22.38640708 -8.62437814 18.20061301 -8 13 C-6.42719981 7.78705915 -4.27069866 3.5080739 0 0 Z " fill="#266D82" transform="translate(94,20)"/>
<path d="M0 0 C5.62643853 1.83186371 9.30118738 5.10907853 12.6875 9.875 C14.12957941 12.75915883 13.78144887 15.29221528 13.75 18.5 C13.74097656 19.68851563 13.73195312 20.87703125 13.72265625 22.1015625 C13.71105469 23.01679688 13.69945312 23.93203125 13.6875 24.875 C13.3575 24.875 13.0275 24.875 12.6875 24.875 C12.605 23.781875 12.5225 22.68875 12.4375 21.5625 C12.05060791 17.84223336 12.05060791 17.84223336 9.625 15.9375 C8.985625 15.586875 8.34625 15.23625 7.6875 14.875 C8.3475 14.875 9.0075 14.875 9.6875 14.875 C9.03688905 13.20200041 8.36716676 11.53640763 7.6875 9.875 C7.419375 9.1325 7.15125 8.39 6.875 7.625 C5.77092864 5.59532588 5.77092864 5.59532588 3.0625 5.125 C2.27875 5.0425 1.495 4.96 0.6875 4.875 C0.6875 3.885 0.6875 2.895 0.6875 1.875 C-1.2925 1.875 -3.2725 1.875 -5.3125 1.875 C-2.3125 -0.125 -2.3125 -0.125 0 0 Z " fill="#4CACCA" transform="translate(150.3125,126.125)"/>
<path d="M0 0 C15.60312539 -0.91424563 15.60312539 -0.91424563 21.546875 3.62109375 C23.2913723 5.27649038 24.77135775 6.92666621 26 9 C25.67 9.66 25.34 10.32 25 11 C24.01 10.67 23.02 10.34 22 10 C21.3125 7.9375 21.3125 7.9375 21 6 C18.03 5.505 18.03 5.505 15 5 C15 4.34 15 3.68 15 3 C14.34773438 3.09539063 13.69546875 3.19078125 13.0234375 3.2890625 C7.78486807 3.95354181 3.95773184 4.21793267 -1 2 C-0.67 1.34 -0.34 0.68 0 0 Z " fill="#49A1C3" transform="translate(63,55)"/>
<path d="M0 0 C2.1875 0.3125 2.1875 0.3125 4 1 C2.625 2.5 2.625 2.5 1 4 C0.34 4 -0.32 4 -1 4 C-2.27252229 12.27139492 -2.89178514 20.78725024 -1 29 C-1.66 29 -2.32 29 -3 29 C-6.42783185 20.18557523 -6.95859558 13.97675399 -3.94921875 4.98046875 C-2.90673726 2.80541478 -1.88472434 1.50008672 0 0 Z " fill="#2E6274" transform="translate(124,59)"/>
<path d="M0 0 C0.99 0.33 1.98 0.66 3 1 C-2.94774014 6.25614245 -7.26237384 8.51165711 -15.3515625 8.40234375 C-19.8167681 7.72400131 -23.30478054 5.49918225 -27 3 C-24.13822943 1.56911472 -22.06624227 2.40008303 -19 3 C-19 3.66 -19 4.32 -19 5 C-17.24929483 4.88529863 -15.49942464 4.75780972 -13.75 4.625 C-12.77546875 4.55539063 -11.8009375 4.48578125 -10.796875 4.4140625 C-8.06634573 4.00982213 -6.42366635 3.23186348 -4 2 C-2.68 2 -1.36 2 0 2 C0 1.34 0 0.68 0 0 Z " fill="#6A8A9C" transform="translate(46,127)"/>
<path d="M0 0 C3.13275301 4.17700402 4.28002048 6.89174752 4 12 C2.46149013 18.49997659 0.3850501 23.8903565 -5 28 C-5.66 28 -6.32 28 -7 28 C-5.84826645 25.53199953 -4.95216435 23.95216435 -3 22 C-2.3574765 19.93125966 -2.3574765 19.93125966 -2 18 C-1.34 18 -0.68 18 0 18 C0 12.06 0 6.12 0 0 Z " fill="#356E86" transform="translate(199,98)"/>
<path d="M0 0 C-2.54930494 1.27465247 -3.96349038 0.94952207 -6.7890625 0.66015625 C-7.73007813 0.56669922 -8.67109375 0.47324219 -9.640625 0.37695312 C-10.62546875 0.27318359 -11.6103125 0.16941406 -12.625 0.0625 C-14.11386719 -0.08735352 -14.11386719 -0.08735352 -15.6328125 -0.24023438 C-18.08912681 -0.48822765 -20.54475137 -0.74170253 -23 -1 C-23 -0.34 -23 0.32 -23 1 C-24.32 0.67 -25.64 0.34 -27 0 C-17.8073451 -6.47664323 -9.36706438 -6.31258687 0 0 Z " fill="#397A92" transform="translate(158,56)"/>
<path d="M0 0 C3.35066172 1.385988 4.83371851 2.7756177 6.6875 5.875 C7.10386719 6.55304687 7.52023438 7.23109375 7.94921875 7.9296875 C10.19817355 12.36071369 10.67995319 17.09020814 10 22 C8.90278307 24.81730809 7.54605125 27.40484254 6 30 C5.34 29.67 4.68 29.34 4 29 C4.309375 28.29875 4.61875 27.5975 4.9375 26.875 C7.01312254 21.2586096 7.05908762 16.8838201 6 11 C5.01 10.67 4.02 10.34 3 10 C2.87625 8.906875 2.7525 7.81375 2.625 6.6875 C2.24535199 2.92618198 2.24535199 2.92618198 0 0 Z " fill="#296477" transform="translate(119,20)"/>
<path d="M0 0 C0.33 0.99 0.66 1.98 1 3 C0.67 3.66 0.34 4.32 0 5 C-0.08308638 6.37548156 -0.10736016 7.75485796 -0.09765625 9.1328125 C-0.09443359 9.93847656 -0.09121094 10.74414062 -0.08789062 11.57421875 C-0.07951172 12.41597656 -0.07113281 13.25773438 -0.0625 14.125 C-0.05573242 15.39923828 -0.05573242 15.39923828 -0.04882812 16.69921875 C-0.03702874 18.79950909 -0.01909306 20.8997633 0 23 C0.66 23 1.32 23 2 23 C2.33 23.99 2.66 24.98 3 26 C2.01 26.33 1.02 26.66 0 27 C-3.84517183 20.63143416 -5.11882538 15.43373399 -4 8 C-2.92247051 5.05072746 -1.63433619 2.70686931 0 0 Z " fill="#427587" transform="translate(127,133)"/>
<path d="M0 0 C0.66 0 1.32 0 2 0 C1.49254088 3.75519748 0.90704749 5.56311281 -2 8 C-8.69185725 11.26530384 -15.94076935 12.32546307 -23.0625 10 C-23.701875 9.67 -24.34125 9.34 -25 9 C-25 8.34 -25 7.68 -25 7 C-23.15535156 7.06960937 -23.15535156 7.06960937 -21.2734375 7.140625 C-19.6406494 7.17816036 -18.00783489 7.21455862 -16.375 7.25 C-15.56675781 7.28351563 -14.75851563 7.31703125 -13.92578125 7.3515625 C-8.21642051 7.44439763 -5.48904215 6.5083591 -1 3 C-0.34 3 0.32 3 1 3 C0.67 2.01 0.34 1.02 0 0 Z " fill="#3C6B78" transform="translate(157,88)"/>
<path d="M0 0 C0.33 0.66 0.66 1.32 1 2 C2.32 1.34 3.64 0.68 5 0 C4.68417969 0.57234375 4.36835937 1.1446875 4.04296875 1.734375 C1.23261319 7.83926723 1.94440832 14.54916193 3 21 C2.34 21.33 1.68 21.66 1 22 C-2.53155185 16.55552423 -2.70533755 11.29307662 -2 5 C-0.98046875 2.16015625 -0.98046875 2.16015625 0 0 Z " fill="#487E93" transform="translate(51,65)"/>
<path d="M0 0 C-0.90453682 4.68903567 -3.14320149 8.15468596 -7 11 C-10.02168033 11.31464535 -11.99987587 10.77589417 -15 10 C-13.33333333 8.33333333 -11.66666667 6.66666667 -10 5 C-9.505 4.443125 -9.01 3.88625 -8.5 3.3125 C-6.04028549 1.16024981 -3.27190718 0 0 0 Z " fill="#6C909F" transform="translate(110,109)"/>
<path d="M0 0 C0 0.66 0 1.32 0 2 C-1.36125 2.6496875 -1.36125 2.6496875 -2.75 3.3125 C-5.92540611 4.83939409 -5.92540611 4.83939409 -8.1875 6.6875 C-10 8 -10 8 -13 8 C-13.33 6.35 -13.66 4.7 -14 3 C-9.47669209 -1.81513423 -6.01431461 -1.20548354 0 0 Z " fill="#257B98" transform="translate(132,94)"/>
<path d="M0 0 C-1.32 0.33 -2.64 0.66 -4 1 C-4 1.66 -4 2.32 -4 3 C-8.35294118 7 -8.35294118 7 -12 7 C-12.33 8.65 -12.66 10.3 -13 12 C-14.65 12 -16.3 12 -18 12 C-15.97917429 7.03979144 -12.52783735 3.9230684 -8 1.1875 C-5.04673207 0.01849811 -3.13366645 -0.27649998 0 0 Z " fill="#658695" transform="translate(32,93)"/>
<path d="M0 0 C0.99 0 1.98 0 3 0 C6.77236027 4.00182258 7.54269523 8.66477769 8 14 C7.56791261 19.30456222 5.64016082 23.11716179 2 27 C2 25.68 2 24.36 2 23 C2.66 23 3.32 23 4 23 C4 21.35 4 19.7 4 18 C4.66 18 5.32 18 6 18 C5.7834375 17.25234375 5.566875 16.5046875 5.34375 15.734375 C5.0653125 14.74953125 4.786875 13.7646875 4.5 12.75 C4.2215625 11.77546875 3.943125 10.8009375 3.65625 9.796875 C3 7 3 7 3 3 C2.01 2.67 1.02 2.34 0 2 C0 1.34 0 0.68 0 0 Z " fill="#266582" transform="translate(158,60)"/>
<path d="M0 0 C0.33 0 0.66 0 1 0 C1.3300966 7.33547995 1.42743893 13.3899392 -2 20 C-4.1875 21.5 -4.1875 21.5 -6 22 C-6 21.34 -6 20.68 -6 20 C-6.66 20 -7.32 20 -8 20 C-7.505 18.515 -7.505 18.515 -7 17 C-6.34 17 -5.68 17 -5 17 C-4.896875 16.21625 -4.79375 15.4325 -4.6875 14.625 C-4 12 -4 12 -1 10 C-0.41810734 7.57478506 -0.41810734 7.57478506 -0.3125 4.875 C-0.24675781 3.96492187 -0.18101563 3.05484375 -0.11328125 2.1171875 C-0.07589844 1.41851562 -0.03851563 0.71984375 0 0 Z " fill="#588090" transform="translate(95,141)"/>
<path d="M0 0 C7.8741584 -0.66231239 13.68047951 -0.02843566 20 5 C22.0625 7.8125 22.0625 7.8125 23 10 C22.01 10 21.02 10 20 10 C19.67 9.01 19.34 8.02 19 7 C16.77017907 6.04407732 16.77017907 6.04407732 14.125 5.4375 C10.81970606 4.58467634 8.89027523 3.92685016 6 2 C4.0103005 1.60986284 2.00980131 1.26797351 0 1 C0 0.67 0 0.34 0 0 Z " fill="#316171" transform="translate(176,87)"/>
<path d="M0 0 C0.99386719 0.00902344 1.98773438 0.01804687 3.01171875 0.02734375 C4.15060547 0.04474609 4.15060547 0.04474609 5.3125 0.0625 C5.3125 1.0525 5.3125 2.0425 5.3125 3.0625 C-0.6275 3.3925 -6.5675 3.7225 -12.6875 4.0625 C-7.98153508 0.53302631 -5.67911437 -0.06681311 0 0 Z " fill="#3B7185" transform="translate(107.6875,15.9375)"/>
<path d="M0 0 C0.33 0.66 0.66 1.32 1 2 C3.02463255 2.65213292 3.02463255 2.65213292 5 3 C4.67 3.99 4.34 4.98 4 6 C4.721875 6.12375 5.44375 6.2475 6.1875 6.375 C8.95721894 6.9904931 11.3970354 7.88444374 14 9 C14 9.66 14 10.32 14 11 C8.04414499 10.70220725 4.28773255 7.88213623 0 4 C-0.66 3.01 -1.32 2.02 -2 1 C-1.34 0.67 -0.68 0.34 0 0 Z " fill="#5C7581" transform="translate(91,195)"/>
<path d="M0 0 C1.32 0.33 2.64 0.66 4 1 C-1.99053145 5.94802338 -6.81515752 9.39855643 -14.9375 8.625 C-15.948125 8.41875 -16.95875 8.2125 -18 8 C-18 7.67 -18 7.34 -18 7 C-17.37351562 6.95101562 -16.74703125 6.90203125 -16.1015625 6.8515625 C-15.28429687 6.77679688 -14.46703125 6.70203125 -13.625 6.625 C-12.81289062 6.55539063 -12.00078125 6.48578125 -11.1640625 6.4140625 C-8.79665809 6.17107412 -8.79665809 6.17107412 -7 4 C-4.375 3.875 -4.375 3.875 -2 4 C-1.34 2.68 -0.68 1.36 0 0 Z " fill="#73848D" transform="translate(84,162)"/>
<path d="M0 0 C0.33 0.99 0.66 1.98 1 3 C0.67 3.66 0.34 4.32 0 5 C1.32 5.33 2.64 5.66 4 6 C2.02 7.32 0.04 8.64 -2 10 C-2 9.34 -2 8.68 -2 8 C-3.65 8.66 -5.3 9.32 -7 10 C-6.02223933 8.51990357 -5.0427506 7.04094856 -4.0625 5.5625 C-3.51722656 4.73878906 -2.97195312 3.91507812 -2.41015625 3.06640625 C-1 1 -1 1 0 0 Z " fill="#3A636D" transform="translate(112,101)"/>
<path d="M0 0 C1.98 0 3.96 0 6 0 C2.7683806 3.87794328 -0.10746749 4.95160018 -5 6 C-6.32 6 -7.64 6 -9 6 C-9 5.01 -9 4.02 -9 3 C-4.545 2.505 -4.545 2.505 0 2 C0 1.34 0 0.68 0 0 Z " fill="#538492" transform="translate(78,91)"/>
<path d="M0 0 C-1.875 1.0625 -1.875 1.0625 -4 2 C-4.66 1.67 -5.32 1.34 -6 1 C-6 0.34 -6 -0.32 -6 -1 C-6.75925781 -0.90460938 -7.51851562 -0.80921875 -8.30078125 -0.7109375 C-9.29464844 -0.60007812 -10.28851563 -0.48921875 -11.3125 -0.375 C-12.29863281 -0.25898437 -13.28476563 -0.14296875 -14.30078125 -0.0234375 C-17 0 -17 0 -20 -2 C-12.84052872 -4.29103081 -6.75304565 -2.57258882 0 0 Z " fill="#5A717C" transform="translate(85,126)"/>
<path d="M0 0 C1.32 0.33 2.64 0.66 4 1 C0.65030675 6.90184049 0.65030675 6.90184049 -2 9 C-2.99 9 -3.98 9 -5 9 C-3.7508258 5.54074837 -2.32472205 2.85306797 0 0 Z " fill="#6F99AE" transform="translate(56,132)"/>
<path d="M0 0 C3.34147603 1.08792243 5.84911441 2.82872202 8.6875 4.875 C8.0275 5.535 7.3675 6.195 6.6875 6.875 C4.7075 6.215 2.7275 5.555 0.6875 4.875 C0.6875 3.885 0.6875 2.895 0.6875 1.875 C-1.2925 1.875 -3.2725 1.875 -5.3125 1.875 C-2.3125 -0.125 -2.3125 -0.125 0 0 Z " fill="#49849A" transform="translate(150.3125,126.125)"/>
<path d="M0 0 C1.84647218 3.10575205 2.18809488 4.99802318 1.6875 8.5625 C1.58824219 9.32691406 1.48898438 10.09132813 1.38671875 10.87890625 C1 13 1 13 0 16 C-0.66 16 -1.32 16 -2 16 C-1.85890014 13.89551062 -1.71195825 11.7914123 -1.5625 9.6875 C-1.48128906 8.51574219 -1.40007813 7.34398438 -1.31640625 6.13671875 C-1 3 -1 3 0 0 Z " fill="#617785" transform="translate(53,107)"/>
<path d="M0 0 C6.72505081 0.16439013 10.21055351 1.21055351 15 6 C14.01 6.33 13.02 6.66 12 7 C12 6.34 12 5.68 12 5 C9.69 4.67 7.38 4.34 5 4 C4.67 3.01 4.34 2.02 4 1 C1.98491642 0.26676204 1.98491642 0.26676204 0 0 Z " fill="#536C78" transform="translate(34,93)"/>
<path d="M0 0 C3.60244452 0.30878096 4.99345998 0.99447732 7.8125 3.375 C10 6 10 6 10 9 C9.01 8.67 8.02 8.34 7 8 C6.3125 5.9375 6.3125 5.9375 6 4 C3.03 3.505 3.03 3.505 0 3 C0 2.01 0 1.02 0 0 Z " fill="#437682" transform="translate(78,57)"/>
<path d="M0 0 C0.66 0 1.32 0 2 0 C2.46450943 6.50313209 1.32575612 10.4174808 -2 16 C-2.66 15.67 -3.32 15.34 -4 15 C-3.71125 14.38125 -3.4225 13.7625 -3.125 13.125 C-1.58288195 8.84133876 -0.81601453 4.47071788 0 0 Z " fill="#3A6581" transform="translate(127,34)"/>
<path d="M0 0 C0.66 0 1.32 0 2 0 C2.33 0.66 2.66 1.32 3 2 C6.0399648 2.69337792 6.0399648 2.69337792 9.5625 3.125 C11.35880859 3.37636719 11.35880859 3.37636719 13.19140625 3.6328125 C14.11824219 3.75398438 15.04507813 3.87515625 16 4 C11.81048275 6.7930115 8.79124832 5.91461658 4 5 C0.9375 3.9375 0.9375 3.9375 -1 3 C-0.67 2.01 -0.34 1.02 0 0 Z " fill="#3C6371" transform="translate(171,124)"/>
<path d="M0 0 C0.66 0 1.32 0 2 0 C1.01 5.28 0.02 10.56 -1 16 C-1.33 16 -1.66 16 -2 16 C-2.05449838 14.27119018 -2.09301688 12.54187288 -2.125 10.8125 C-2.14820313 9.84957031 -2.17140625 8.88664062 -2.1953125 7.89453125 C-1.9913544 4.87187222 -1.26874632 2.73230015 0 0 Z " fill="#193B49" transform="translate(162,98)"/>
<path d="M0 0 C2.92990998 4.39486496 3.30981005 8.8755882 2.5625 14 C2.376875 14.66 2.19125 15.32 2 16 C1.67 16 1.34 16 1 16 C0.63818911 13.70952777 0.28576776 11.41757055 -0.0625 9.125 C-0.25972656 7.84882812 -0.45695312 6.57265625 -0.66015625 5.2578125 C-1 2 -1 2 0 0 Z " fill="#366878" transform="translate(89,66)"/>
<path d="M0 0 C0.99 0.33 1.98 0.66 3 1 C-3.28571429 6.57142857 -3.28571429 6.57142857 -7 7 C-7.33 6.01 -7.66 5.02 -8 4 C-4.91190305 2.23537317 -3.76687864 2 0 2 C0 1.34 0 0.68 0 0 Z " fill="#5E7C8E" transform="translate(46,127)"/>
<path d="M0 0 C0.33 0 0.66 0 1 0 C1.05418326 2.08304538 1.09287551 4.16649768 1.125 6.25 C1.14820313 7.41015625 1.17140625 8.5703125 1.1953125 9.765625 C1.00892712 12.85216691 0.78936323 14.51148161 -1 17 C-1.99 17.33 -2.98 17.66 -4 18 C-3.34 15.69 -2.68 13.38 -2 11 C-1.34 11 -0.68 11 0 11 C0 7.37 0 3.74 0 0 Z " fill="#3C646D" transform="translate(164,140)"/>
<path d="M0 0 C0.33 0.66 0.66 1.32 1 2 C1.66 2 2.32 2 3 2 C3 2.66 3 3.32 3 4 C2.38125 4.4125 1.7625 4.825 1.125 5.25 C-1.62116292 7.51154594 -2.09886639 9.62074896 -3 13 C-3.33 13 -3.66 13 -4 13 C-2.8 2.8 -2.8 2.8 0 0 Z " fill="#5AA2BC" transform="translate(130,130)"/>
<path d="M0 0 C3.96 0 7.92 0 12 0 C12.33 0.66 12.66 1.32 13 2 C9.87819599 2.96661363 7.47916205 2.98988909 4.25 2.5625 C3.05117187 2.40974609 3.05117187 2.40974609 1.828125 2.25390625 C1.22484375 2.17011719 0.6215625 2.08632812 0 2 C0 1.34 0 0.68 0 0 Z " fill="#1E7091" transform="translate(178,126)"/>
<path d="M0 0 C0.66 0.66 1.32 1.32 2 2 C1.625 4.625 1.625 4.625 1 7 C-0.65 7 -2.3 7 -4 7 C-2.79618552 4.50638429 -1.54571278 2.31856917 0 0 Z " fill="#6A899F" transform="translate(18,98)"/>
<path d="M0 0 C0.33 0.66 0.66 1.32 1 2 C-0.65 3.65 -2.3 5.3 -4 7 C-4.66 5.68 -5.32 4.36 -6 3 C-3.8614515 0.8614515 -2.86724686 0.57344937 0 0 Z " fill="#41798C" transform="translate(161,157)"/>
<path d="M0 0 C1.39456452 0.00667256 2.78911118 0.01863093 4.18359375 0.03515625 C4.89451172 0.03966797 5.60542969 0.04417969 6.33789062 0.04882812 C8.09899388 0.06064761 9.86005411 0.07858362 11.62109375 0.09765625 C11.62109375 0.42765625 11.62109375 0.75765625 11.62109375 1.09765625 C9.33168419 1.48619834 7.03944801 1.85811905 4.74609375 2.22265625 C2.83183594 2.53589844 2.83183594 2.53589844 0.87890625 2.85546875 C-0.73371094 2.97535156 -0.73371094 2.97535156 -2.37890625 3.09765625 C-3.03890625 2.43765625 -3.69890625 1.77765625 -4.37890625 1.09765625 C-3.37890625 0.09765625 -3.37890625 0.09765625 0 0 Z " fill="#476981" transform="translate(66.37890625,54.90234375)"/>
<path d="M0 0 C0.33 0 0.66 0 1 0 C1 1.65 1 3.3 1 5 C1.66 5 2.32 5 3 5 C2.67 6.32 2.34 7.64 2 9 C1.01 8.67 0.02 8.34 -1 8 C-1.33 6.35 -1.66 4.7 -2 3 C-1.34 3 -0.68 3 0 3 C0 2.01 0 1.02 0 0 Z " fill="#236681" transform="translate(163,111)"/>
<path d="M0 0 C0.99 0.33 1.98 0.66 3 1 C3 1.66 3 2.32 3 3 C2.01 3 1.02 3 0 3 C-0.33 3.99 -0.66 4.98 -1 6 C-3.0625 6.6875 -3.0625 6.6875 -5 7 C-3.70700306 4.11562221 -2.34058637 2.12780579 0 0 Z " fill="#275E71" transform="translate(94,20)"/>
<path d="M0 0 C0.99 0.33 1.98 0.66 3 1 C2.64950425 4.24208567 2.43778819 5.61527704 -0.0625 7.8125 C-0.701875 8.204375 -1.34125 8.59625 -2 9 C-2 7.35 -2 5.7 -2 4 C-1.01 4 -0.02 4 1 4 C0.67 2.68 0.34 1.36 0 0 Z " fill="#607D8D" transform="translate(124,190)"/>
<path d="M0 0 C0.33 0 0.66 0 1 0 C1.5497272 5.63470383 -0.04952165 8.38987758 -3 13 C-3.33 11.68 -3.66 10.36 -4 9 C-3.34 9 -2.68 9 -2 9 C-2 7.35 -2 5.7 -2 4 C-1.34 4 -0.68 4 0 4 C0 2.68 0 1.36 0 0 Z " fill="#2C505A" transform="translate(164,74)"/>
<path d="M0 0 C3.97132519 0.32199934 6.70665213 1.83579997 10 4 C7.18185434 5.40907283 5.82722796 4.50872691 2.875 3.5625 C1.96492187 3.27503906 1.05484375 2.98757812 0.1171875 2.69140625 C-0.58148438 2.46324219 -1.28015625 2.23507813 -2 2 C-1.34 1.34 -0.68 0.68 0 0 Z " fill="#2C5863" transform="translate(148,52)"/>
<path d="M0 0 C1.65 0 3.3 0 5 0 C3.70700306 2.88437779 2.34058637 4.87219421 0 7 C0 4.69 0 2.38 0 0 Z " fill="#68889E" transform="translate(97,120)"/>
<path d="M0 0 C0.33 0.66 0.66 1.32 1 2 C1.66 2.33 2.32 2.66 3 3 C2.34 3 1.68 3 1 3 C1 3.99 1 4.98 1 6 C-0.32 6 -1.64 6 -3 6 C-2.625 3.5625 -2.625 3.5625 -2 1 C-1.34 0.67 -0.68 0.34 0 0 Z " fill="#338FAA" transform="translate(115,100)"/>
<path d="M0 0 C0.33 0.66 0.66 1.32 1 2 C3.02463255 2.65213292 3.02463255 2.65213292 5 3 C4.67 3.99 4.34 4.98 4 6 C0.83884224 4.63016497 0.0072908 4.0109362 -2 1 C-1.34 0.67 -0.68 0.34 0 0 Z " fill="#668798" transform="translate(91,195)"/>
<path d="M0 0 C0.99 0 1.98 0 3 0 C3.33 1.32 3.66 2.64 4 4 C3.01 4.495 3.01 4.495 2 5 C2 4.34 2 3.68 2 3 C0.35 3.66 -1.3 4.32 -3 5 C-1.6875 2.5 -1.6875 2.5 0 0 Z " fill="#4A707B" transform="translate(108,106)"/>
<path d="M0 0 C6.75 0.75 6.75 0.75 9 3 C7.3125 3.6875 7.3125 3.6875 5 4 C2.25 2.625 2.25 2.625 0 1 C0 0.67 0 0.34 0 0 Z " fill="#548594" transform="translate(58,92)"/>
<path d="M0 0 C1.98 0 3.96 0 6 0 C5.67 0.99 5.34 1.98 5 3 C3.02 3 1.04 3 -1 3 C-0.67 2.01 -0.34 1.02 0 0 Z " fill="#478EA6" transform="translate(174,88)"/>
<path d="M0 0 C0.33 0.99 0.66 1.98 1 3 C-0.875 6.1875 -0.875 6.1875 -3 9 C-3.33 9 -3.66 9 -4 9 C-4 7.35 -4 5.7 -4 4 C-3.34 4 -2.68 4 -2 4 C-1.34 2.68 -0.68 1.36 0 0 Z " fill="#47777D" transform="translate(89,82)"/>
<path d="M0 0 C0.66 0.33 1.32 0.66 2 1 C1.67 1.66 1.34 2.32 1 3 C0.34 3 -0.32 3 -1 3 C-1.66 4.32 -2.32 5.64 -3 7 C-3.66 7 -4.32 7 -5 7 C-4.60196439 4.11424181 -4.20990931 3.17810487 -1.9375 1.25 C-1.298125 0.8375 -0.65875 0.425 0 0 Z " fill="#6BB1CA" transform="translate(57,60)"/>
<path d="M0 0 C0 0.99 0 1.98 0 3 C-4.34285714 7 -4.34285714 7 -7 7 C-5.66667905 3.00003714 -3.5042173 2.16217663 0 0 Z " fill="#598F98" transform="translate(123,49)"/>
<path d="M0 0 C0.99 0.33 1.98 0.66 3 1 C4.1875 4.0625 4.1875 4.0625 5 7 C4.34 7.66 3.68 8.32 3 9 C2.01 6.03 1.02 3.06 0 0 Z " fill="#5E8B98" transform="translate(159,133)"/>
<path d="M0 0 C-0.33 1.32 -0.66 2.64 -1 4 C-2.98 4.33 -4.96 4.66 -7 5 C-7 4.01 -7 3.02 -7 2 C-2.25 0 -2.25 0 0 0 Z " fill="#8FAFBA" transform="translate(110,109)"/>
<path d="M0 0 C2 3 2 3 1.625 5.6875 C1.41875 6.450625 1.2125 7.21375 1 8 C0.01 7.67 -0.98 7.34 -2 7 C-1.125 1.125 -1.125 1.125 0 0 Z " fill="#336A7E" transform="translate(121,63)"/>
<path d="M0 0 C0 0.99 0 1.98 0 3 C-1.98 3.33 -3.96 3.66 -6 4 C-6 3.34 -6 2.68 -6 2 C-3 0 -3 0 0 0 Z " fill="#599AAE" transform="translate(156,162)"/>
<path d="M0 0 C0.66 0 1.32 0 2 0 C3.38232443 1.62626404 4.71937515 3.2925002 6 5 C5.01 5.66 4.02 6.32 3 7 C0 2.25 0 2.25 0 0 Z " fill="#325D6E" transform="translate(124,153)"/>
<path d="M0 0 C0.33 0 0.66 0 1 0 C1.22162329 1.62324086 1.42689803 3.248721 1.625 4.875 C1.74101563 5.77992188 1.85703125 6.68484375 1.9765625 7.6171875 C1.98429687 8.40351563 1.99203125 9.18984375 2 10 C1.34 10.66 0.68 11.32 0 12 C-1.16063604 7.74433453 -0.76173392 4.3164922 0 0 Z " fill="#4D6874" transform="translate(93,131)"/>
<path d="M0 0 C0.33 0.99 0.66 1.98 1 3 C-0.28965176 4.37562854 -1.62689293 5.70766393 -3 7 C-3.66 7 -4.32 7 -5 7 C-3.70700306 4.11562221 -2.34058637 2.12780579 0 0 Z " fill="#528F99" transform="translate(197,119)"/>
<path d="M0 0 C0.33 0.66 0.66 1.32 1 2 C2.32 1.34 3.64 0.68 5 0 C3.79618552 2.49361571 2.54571278 4.68143083 1 7 C1 6.01 1 5.02 1 4 C0.34 4 -0.32 4 -1 4 C-0.67 2.68 -0.34 1.36 0 0 Z " fill="#418AA6" transform="translate(51,65)"/>
</svg>
