<?xml version="1.0" encoding="UTF-8"?>
<svg version="1.1" xmlns="http://www.w3.org/2000/svg" width="403" height="403">
<path d="M0 0 C0.90363281 -0.02835938 1.80726563 -0.05671875 2.73828125 -0.0859375 C10.24151945 1.08675403 15.2878446 6.54145999 20.41113281 11.71044922 C21.14860748 12.44266693 21.88608215 13.17488464 22.64590454 13.92929077 C25.06838512 16.33862574 27.47979459 18.75869932 29.890625 21.1796875 C31.576934 22.86397444 33.26368803 24.54781592 34.9508667 26.23123169 C38.47930538 29.75525455 42.00227865 33.28462859 45.52148438 36.81787109 C50.02945824 41.34294916 54.55078391 45.85440824 59.0762825 50.36195183 C62.55955413 53.83437704 66.03564157 57.3139232 69.50960541 60.79565811 C71.1739567 62.46200833 72.84053303 64.12613929 74.50937653 65.78799057 C76.84074192 68.11172636 79.16225605 70.44488189 81.48144531 72.78076172 C82.1703183 73.46356201 82.85919128 74.1463623 83.56893921 74.84985352 C87.62494235 78.96002009 91.08348854 82.82199141 92.0859375 88.71875 C92.07820312 89.4303125 92.07046875 90.141875 92.0625 90.875 C92.07023438 91.5865625 92.07796875 92.298125 92.0859375 93.03125 C90.96565171 99.62116642 86.66628231 103.87549898 82.1484375 108.41796875 C81.50814606 109.06824539 80.86785461 109.71852203 80.2081604 110.38850403 C78.85546078 111.75633776 77.49871304 113.12017865 76.13818359 114.48022461 C74.07397229 116.55099128 72.03495047 118.64453769 69.99609375 120.74023438 C68.67335171 122.07178107 67.34917793 123.40190733 66.0234375 124.73046875 C65.42308685 125.35237595 64.82273621 125.97428314 64.20419312 126.61503601 C59.9069033 130.84512912 55.67975325 133.30228652 49.6875 134.375 C38.98877488 134.28276342 32.11794826 124.95978287 25.125 117.91015625 C24.44824219 117.23198349 23.77148438 116.55381073 23.07421875 115.85508728 C20.94292325 113.71825695 18.81515782 111.57795177 16.6875 109.4375 C15.23070221 107.97567877 13.77367299 106.51408813 12.31640625 105.05273438 C8.77076027 101.496146 5.22827261 97.93643984 1.6875 94.375 C-4.32026922 99.34720297 -9.79662909 104.74310652 -15.28344727 110.2800293 C-16.26956389 111.27134879 -17.25592955 112.26242062 -18.24252319 113.25326538 C-20.35436951 115.37499552 -22.46473271 117.49818577 -24.57400703 119.62247276 C-27.91205292 122.98371565 -31.25509174 126.33996273 -34.59910583 129.69526672 C-44.10322381 139.23271204 -53.60307653 148.77437764 -63.0925293 158.32641602 C-68.34289044 163.61132072 -73.59861048 168.89083404 -78.86033291 174.16442806 C-82.18393921 177.4961172 -85.50087727 180.83426079 -88.81303227 184.17733228 C-90.87566865 186.25600309 -92.94459925 188.32831873 -95.01536179 190.39889145 C-96.42670966 191.81380493 -97.83055658 193.23618815 -99.23414612 194.65879822 C-100.08210754 195.50408081 -100.93006897 196.3493634 -101.8037262 197.22026062 C-102.53391244 197.95451106 -103.26409868 198.6887615 -104.01641178 199.44526196 C-108.26594742 203.01676697 -112.76948415 205.04241905 -118.3125 205.375 C-129.76514487 203.89723937 -137.16150447 193.76268939 -145.00512695 185.97753906 C-146.08957562 184.9046949 -147.17849798 183.83635497 -148.27172852 182.77246094 C-149.87473076 181.212266 -151.46393507 179.63910503 -153.05078125 178.0625 C-154.45904175 176.67611328 -154.45904175 176.67611328 -155.89575195 175.26171875 C-159.34953048 171.13630433 -161.06227356 167.34106492 -161.75 161.9375 C-160.8140998 154.31659837 -156.57508877 149.04536134 -151.23974609 143.80776978 C-150.63478491 143.19797976 -150.02982372 142.58818974 -149.40653038 141.95992124 C-147.39236735 139.93455487 -145.36432343 137.92371195 -143.3359375 135.91259766 C-141.88288337 134.45739606 -140.43069597 133.00132858 -138.97930908 131.54446411 C-135.04636512 127.60184889 -131.10107329 123.67180916 -127.15314484 119.74420595 C-123.02178263 115.63043956 -118.90099687 111.50610347 -114.77880859 107.38314819 C-107.85868963 100.46490046 -100.93087849 93.55443279 -93.99804688 86.64892578 C-85.97971858 78.66208357 -77.97192701 70.66480072 -69.97006035 62.66146815 C-62.27130465 54.96149252 -54.56685327 47.26724387 -46.85919189 39.57618332 C-43.57861047 36.3026673 -40.29973678 33.02745465 -37.02215576 29.7509346 C-33.1658616 25.89664705 -29.30451557 22.04749225 -25.43917084 18.20228195 C-24.02006614 16.78902601 -22.60265506 15.37406716 -21.18704987 13.95730591 C-19.25770076 12.02697743 -17.32233115 10.10289705 -15.38525391 8.18032837 C-14.8237734 7.61575066 -14.2622929 7.05117296 -13.68379784 6.46948683 C-9.21280879 2.05383506 -6.29232598 0.08900037 0 0 Z " fill="#4097FB" transform="translate(200.3125,35.625)"/>
<path d="M0 0 C1.00804687 -0.02835938 2.01609375 -0.05671875 3.0546875 -0.0859375 C9.63510736 0.90196268 14.20548839 6.14749827 18.73046875 10.6796875 C19.3363533 11.28128693 19.94223785 11.88288635 20.56648254 12.50271606 C21.83876833 13.76928807 23.10848126 15.03844928 24.37573242 16.31005859 C26.30849524 18.24598868 28.25422666 20.16818992 30.20117188 22.08984375 C31.4409145 23.32731371 32.6798738 24.56556903 33.91796875 25.8046875 C34.78520821 26.65811234 34.78520821 26.65811234 35.66996765 27.52877808 C39.48871833 31.39149679 42.58402591 35.1927995 43.5234375 40.71875 C43.51570312 41.4303125 43.50796875 42.141875 43.5 42.875 C43.50773438 43.5865625 43.51546875 44.298125 43.5234375 45.03125 C42.44856521 51.35402819 38.51266694 55.41982385 34.14126587 59.73968506 C33.53378112 60.35184978 32.92629637 60.9640145 32.300403 61.59472966 C30.26935079 63.63771796 28.22778001 65.66985047 26.18603516 67.70214844 C24.72512071 69.16712913 23.264845 70.63274703 21.80516052 72.09895325 C17.84312696 76.07465845 13.87166815 80.04082137 9.89804125 84.00493526 C5.74120473 88.15417593 1.5916934 92.31073179 -2.55899048 96.46612549 C-9.52937999 103.44197214 -16.50606964 110.41147097 -23.48632812 117.37744141 C-31.55867873 125.43345926 -39.62015631 133.50023641 -47.67608297 141.57267547 C-54.59208949 148.50229034 -61.5139183 155.42604868 -68.44065821 162.3449347 C-72.57817382 166.47777107 -76.71363057 170.61261282 -80.843853 174.75273895 C-84.72599519 178.6435392 -88.61538765 182.5269423 -92.51052666 186.40472984 C-93.93977023 187.83000268 -95.36645965 189.25784201 -96.790411 190.68840218 C-98.73252636 192.63869935 -100.68362045 194.57954532 -102.63729858 196.51824951 C-103.20043931 197.08808241 -103.76358004 197.6579153 -104.34378564 198.24501586 C-108.80368665 202.63872672 -112.4944844 204.65007164 -118.75 204.75 C-119.55179687 204.77835938 -120.35359375 204.80671875 -121.1796875 204.8359375 C-128.51067836 203.58223182 -133.56611894 198.12546689 -138.59863281 193.07128906 C-139.33610748 192.34228394 -140.07358215 191.61327881 -140.83340454 190.86218262 C-143.25614508 188.46274099 -145.66762351 186.05235757 -148.078125 183.640625 C-149.76458004 181.96127471 -151.45133182 180.28222238 -153.1383667 178.60345459 C-156.66711107 175.08813798 -160.18988196 171.56695995 -163.70898438 168.04199219 C-168.21355427 163.53152173 -172.73611606 159.03958085 -177.2637825 154.55231094 C-180.75032513 151.09164507 -184.22530344 147.61954446 -187.69710541 144.14409637 C-189.35969057 142.48320179 -191.02625164 140.82627708 -192.69687653 139.17346954 C-195.03302934 136.85950818 -197.35268749 134.53014244 -199.66894531 132.19628906 C-200.3578183 131.52067932 -201.04669128 130.84506958 -201.75643921 130.14898682 C-206.49299431 125.32862354 -209.50218398 120.78100755 -210.08984375 113.8359375 C-209.99832031 113.14757812 -209.90679687 112.45921875 -209.8125 111.75 C-209.73902344 111.05648437 -209.66554688 110.36296875 -209.58984375 109.6484375 C-207.70074073 103.64047052 -202.99333835 99.15220371 -198.67578125 94.76953125 C-198.08129684 94.1636467 -197.48681244 93.55776215 -196.87431335 92.93351746 C-195.62059136 91.66099913 -194.36401231 90.39128997 -193.10473633 89.12426758 C-191.19629376 87.19638334 -189.31027204 85.24821087 -187.42382812 83.29882812 C-186.19664077 82.05858015 -184.96816589 80.81960454 -183.73828125 79.58203125 C-183.18481522 79.00387161 -182.63134918 78.42571198 -182.06111145 77.83003235 C-177.90368171 73.71822262 -173.66930686 71.42908366 -167.875 70.375 C-158.42467581 70.81119454 -152.06779752 76.72907095 -145.875 83.375 C-143.58585619 85.91195938 -141.30346893 88.45484864 -139.0234375 91 C-135.83528658 94.52435593 -132.85054064 97.72463957 -128.875 100.375 C-128.875 101.035 -128.875 101.695 -128.875 102.375 C-128.215 102.375 -127.555 102.375 -126.875 102.375 C-126.875 103.035 -126.875 103.695 -126.875 104.375 C-125.39 104.87 -125.39 104.87 -123.875 105.375 C-121.6875 107.3125 -121.6875 107.3125 -119.875 109.375 C-119.875 110.035 -119.875 110.695 -119.875 111.375 C-113.48381372 105.97559772 -107.5590227 100.18401816 -101.66699219 94.2487793 C-100.66762259 93.24584559 -99.66801238 92.2431516 -98.66818237 91.24067688 C-96.53119813 89.0971878 -94.39573634 86.9521979 -92.26143646 84.806036 C-88.88562328 81.41180961 -85.50536048 78.02203783 -82.12432861 74.63301086 C-72.51627099 65.00088757 -62.91423593 55.36277341 -53.31640625 45.72045898 C-48.00373638 40.38324408 -42.68748048 35.04962723 -37.36735272 29.71984607 C-34.00578375 26.35174016 -30.64876813 22.97918091 -27.29506636 19.60324228 C-25.21123287 17.50768308 -23.12323435 15.41631322 -21.03403091 13.32610893 C-19.60491936 11.89382537 -18.18081851 10.45654768 -16.75686646 9.01913452 C-15.90468536 8.1682576 -15.05250427 7.31738068 -14.17449951 6.4407196 C-13.06734148 5.32884797 -13.06734148 5.32884797 -11.93781662 4.19451427 C-8.08047572 0.79213388 -5.10602853 0.0649622 0 0 Z " fill="#4099FD" transform="translate(319.875,154.625)"/>
<path d="M0 0 C6.77479493 4.90632429 12.13036718 11.12136191 17.68359375 17.3203125 C20.87174467 20.84466843 23.85649061 24.04495207 27.83203125 26.6953125 C27.83203125 27.3553125 27.83203125 28.0153125 27.83203125 28.6953125 C28.49203125 28.6953125 29.15203125 28.6953125 29.83203125 28.6953125 C29.83203125 29.3553125 29.83203125 30.0153125 29.83203125 30.6953125 C31.31703125 31.1903125 31.31703125 31.1903125 32.83203125 31.6953125 C35.74423723 34.00794666 36.73542204 35.09150492 37.33203125 38.8203125 C37.49703125 39.7690625 37.66203125 40.7178125 37.83203125 41.6953125 C39.63144029 42.7364659 39.63144029 42.7364659 41.83203125 43.6953125 C43.38964791 44.7555849 44.93017585 45.84120208 46.45703125 46.9453125 C49.88756109 49.3633071 53.33348748 51.7231323 56.89453125 53.9453125 C57.62800781 54.40421875 58.36148438 54.863125 59.1171875 55.3359375 C67.40812392 59.48737041 74.85287817 60.21163938 84.08203125 60.1328125 C85.27900635 60.12741455 86.47598145 60.1220166 87.70922852 60.11645508 C96.46533758 59.96537443 105.72508706 59.74032123 112.8984375 54.05859375 C114.83203125 52.6953125 114.83203125 52.6953125 118.83203125 52.6953125 C118.83203125 52.0353125 118.83203125 51.3753125 118.83203125 50.6953125 C121.58203125 48.5078125 121.58203125 48.5078125 124.83203125 46.6953125 C127.03515625 47.08203125 127.03515625 47.08203125 128.83203125 47.6953125 C118.36645435 58.23099174 107.89227997 68.75805799 97.40782642 79.27495384 C92.53983696 84.15840767 87.67469234 89.04463362 82.81616211 93.9375 C78.12866579 98.65810788 73.43334988 103.3708404 68.73316002 108.07881546 C66.93996588 109.87755873 65.14941719 111.67894326 63.36155128 113.48298264 C60.85969149 116.00657376 58.34864641 118.52066594 55.83520508 121.03271484 C55.09577164 121.78293411 54.3563382 122.53315338 53.59449768 123.30610657 C52.90607788 123.99040237 52.21765808 124.67469818 51.50837708 125.37973022 C50.91566419 125.97520849 50.3229513 126.57068676 49.71227741 127.18420982 C46.14113629 130.05423877 42.47419019 130.99815341 37.95703125 131.0703125 C37.15523438 131.09867188 36.3534375 131.12703125 35.52734375 131.15625 C28.19635289 129.90254432 23.14091231 124.44577939 18.10839844 119.39160156 C17.37092377 118.66259644 16.6334491 117.93359131 15.87362671 117.18249512 C13.45088617 114.78305349 11.03940774 112.37267007 8.62890625 109.9609375 C6.94245121 108.28158721 5.25569943 106.60253488 3.56866455 104.92376709 C0.03992018 101.40845048 -3.48285071 97.88727245 -7.00195312 94.36230469 C-11.50652302 89.85183423 -16.02908481 85.35989335 -20.55675125 80.87262344 C-24.04329388 77.41195757 -27.51827219 73.93985696 -30.99007416 70.46440887 C-32.65265932 68.80351429 -34.31922039 67.14658958 -35.98984528 65.49378204 C-38.32599809 63.17982068 -40.64565624 60.85045494 -42.96191406 58.51660156 C-43.65078705 57.84099182 -44.33966003 57.16538208 -45.04940796 56.46929932 C-49.78596306 51.64893604 -52.79515273 47.10132005 -53.3828125 40.15625 C-53.29128906 39.46789062 -53.19976562 38.77953125 -53.10546875 38.0703125 C-53.03199219 37.37679687 -52.95851563 36.68328125 -52.8828125 35.96875 C-50.99370948 29.96078302 -46.2863071 25.47251621 -41.96875 21.08984375 C-41.37426559 20.4839592 -40.77978119 19.87807465 -40.1672821 19.25382996 C-38.91356011 17.98131163 -37.65698106 16.71160247 -36.39770508 15.44458008 C-34.48926251 13.51669584 -32.60324079 11.56852337 -30.71679688 9.61914062 C-29.48960952 8.37889265 -28.26113464 7.13991704 -27.03125 5.90234375 C-26.47778397 5.32418411 -25.92431793 4.74602448 -25.3540802 4.15034485 C-18.07855403 -3.04534604 -9.09102586 -5.47099574 0 0 Z " fill="#0BFAE5" transform="translate(163.16796875,228.3046875)"/>
<path d="M0 0 C0.90363281 -0.02835938 1.80726563 -0.05671875 2.73828125 -0.0859375 C10.24151945 1.08675403 15.2878446 6.54145999 20.41113281 11.71044922 C21.14860748 12.44266693 21.88608215 13.17488464 22.64590454 13.92929077 C25.06838512 16.33862574 27.47979459 18.75869932 29.890625 21.1796875 C31.576934 22.86397444 33.26368803 24.54781592 34.9508667 26.23123169 C38.47930538 29.75525455 42.00227865 33.28462859 45.52148438 36.81787109 C50.02945824 41.34294916 54.55078391 45.85440824 59.0762825 50.36195183 C62.55955413 53.83437704 66.03564157 57.3139232 69.50960541 60.79565811 C71.1739567 62.46200833 72.84053303 64.12613929 74.50937653 65.78799057 C76.84074192 68.11172636 79.16225605 70.44488189 81.48144531 72.78076172 C82.1703183 73.46356201 82.85919128 74.1463623 83.56893921 74.84985352 C87.62494235 78.96002009 91.08348854 82.82199141 92.0859375 88.71875 C92.07820312 89.4303125 92.07046875 90.141875 92.0625 90.875 C92.07023438 91.5865625 92.07796875 92.298125 92.0859375 93.03125 C90.96565171 99.62116642 86.66628231 103.87549898 82.1484375 108.41796875 C81.50814606 109.06824539 80.86785461 109.71852203 80.2081604 110.38850403 C78.85546078 111.75633776 77.49871304 113.12017865 76.13818359 114.48022461 C74.07397229 116.55099128 72.03495047 118.64453769 69.99609375 120.74023438 C68.67335171 122.07178107 67.34917793 123.40190733 66.0234375 124.73046875 C65.42308685 125.35237595 64.82273621 125.97428314 64.20419312 126.61503601 C59.9069033 130.84512912 55.67975325 133.30228652 49.6875 134.375 C44.39318257 134.32935627 40.79821417 132.78211398 36.90136719 129.25195312 C36.20789185 128.62442139 35.5144165 127.99688965 34.79992676 127.3503418 C31.42257541 124.1921621 28.10808321 120.97784069 24.828125 117.71875 C24.11646179 117.01278687 23.40479858 116.30682373 22.67156982 115.57946777 C21.18119958 114.09847093 19.69222116 112.61607223 18.20458984 111.13232422 C15.9364299 108.87393451 13.65781483 106.62644246 11.37890625 104.37890625 C9.92382178 102.93034754 8.46937253 101.48115043 7.015625 100.03125 C6.33953186 99.36750366 5.66343872 98.70375732 4.96685791 98.01989746 C1.96993667 95.00880256 -0.56744765 92.21074231 -2.61425781 88.47070312 C-4.58801121 84.87277428 -5.54894996 84.59815376 -9.3125 83.375 C-9.869375 82.75625 -10.42625 82.1375 -11 81.5 C-14.55666777 78.2317107 -18.82107347 77.00947401 -23.3125 75.375 C-24.05628906 75.08367187 -24.80007812 74.79234375 -25.56640625 74.4921875 C-38.96120584 69.25626963 -56.26950551 69.20857079 -69.69140625 74.40234375 C-72.55333709 75.46437174 -75.29533508 75.95410328 -78.3125 76.375 C-77.90257813 75.85550781 -77.49265625 75.33601563 -77.0703125 74.80078125 C-76.53148438 74.10339844 -75.99265625 73.40601562 -75.4375 72.6875 C-74.63699219 71.66076172 -74.63699219 71.66076172 -73.8203125 70.61328125 C-72.2306964 68.47474249 -72.2306964 68.47474249 -71.57846069 66.11857605 C-69.90037211 62.48184098 -67.36147899 60.01306757 -64.54931641 57.23950195 C-63.96048172 56.6470166 -63.37164703 56.05453125 -62.76496887 55.4440918 C-60.82198614 53.4930214 -58.86838013 51.55299269 -56.9140625 49.61328125 C-55.55835725 48.25809478 -54.2031704 46.90238953 -52.84848022 45.54618835 C-50.01012705 42.70792482 -47.16668282 39.8748946 -44.31933594 37.0456543 C-40.67013808 33.41915388 -37.0321273 29.781674 -33.39763832 26.14043903 C-30.60135321 23.34081248 -27.80010366 20.54619767 -24.99723434 17.75316429 C-23.65388264 16.41366101 -22.31187587 15.07280751 -20.971241 13.7305851 C-19.09720225 11.85617547 -17.21679756 9.98839794 -15.33447266 8.12231445 C-14.7816008 7.56696518 -14.22872894 7.01161591 -13.65910339 6.43943787 C-9.19810737 2.03970765 -6.27357884 0.0887352 0 0 Z " fill="#0BFBE6" transform="translate(200.3125,35.625)"/>
<path d="M0 0 C0.99 0.33 1.98 0.66 3 1 C-12.84 16.84 -28.68 32.68 -45 49 C-40.66973851 57.66052298 -30.5989015 61.45254444 -22 65 C-22 65.33 -22 65.66 -22 66 C-27.81277563 65.5614402 -31.35762478 63.96179617 -36.125 60.6875 C-36.71925781 60.29626953 -37.31351563 59.90503906 -37.92578125 59.50195312 C-47.70326288 52.99442396 -47.70326288 52.99442396 -48.63330078 49.87768555 C-48.75431152 49.25804932 -48.87532227 48.63841309 -49 48 C-48.53561523 47.60666977 -48.07123047 47.21333954 -47.59277344 46.80809021 C-41.88546503 41.90240607 -36.55382094 36.68347418 -31.25 31.34765625 C-29.90192261 29.99745644 -29.90192261 29.99745644 -28.52661133 28.61997986 C-26.16413425 26.25288737 -23.80384888 23.88365361 -21.44464111 21.51330566 C-19.02614819 19.08449258 -16.60474054 16.65858897 -14.18359375 14.23242188 C-9.45307046 9.49092631 -4.72542027 4.74658102 0 0 Z " fill="#4756F6" transform="translate(249,218)"/>
<path d="M0 0 C0.495 0.99 0.495 0.99 1 2 C-0.18081693 5.13951588 -1.74021429 6.86126099 -4.31933594 8.94384766 C-9.89520894 13.66910804 -14.96419981 18.88485506 -20.09455109 24.08051682 C-21.92457988 25.93280539 -23.75875118 27.78089836 -25.59417725 29.62783813 C-30.80638404 34.87343738 -36.01416328 40.12337441 -41.21191406 45.38330078 C-44.40479402 48.61378256 -47.6049076 51.83694396 -50.80980682 55.05550003 C-52.02622289 56.27996829 -53.23985623 57.50720754 -54.45063019 58.7372551 C-56.13768764 60.45073315 -57.833772 62.15476292 -59.53222656 63.85693359 C-60.02891846 64.36598236 -60.52561035 64.87503113 -61.03735352 65.39950562 C-63.63872616 67.98589612 -65.42105955 69.29496749 -69 70 C-65.04145382 65.25809265 -60.9163086 60.77503166 -56.53564453 56.42211914 C-55.92029343 55.80662201 -55.30494232 55.19112488 -54.67094421 54.55697632 C-52.6605979 52.54732002 -50.64674589 50.54121726 -48.6328125 48.53515625 C-47.22869339 47.13290456 -45.82479664 45.73043019 -44.42111206 44.32774353 C-40.74415621 40.65458732 -37.06420609 36.98444546 -33.38360596 33.31494141 C-29.62109763 29.56270233 -25.86145421 25.80759507 -22.1015625 22.05273438 C-14.73716251 14.69902664 -7.36959333 7.34850292 0 0 Z " fill="#228BB8" transform="translate(111,118)"/>
<path d="M0 0 C-13.53 13.53 -27.06 27.06 -41 41 C-41.495 39.515 -41.495 39.515 -42 38 C-40.625 36.5 -40.625 36.5 -39 35 C-38.34 35 -37.68 35 -37 35 C-36.9175 34.4225 -36.835 33.845 -36.75 33.25 C-35.78202213 30.3460664 -34.31305716 28.96259396 -32 27 C-31.34 27 -30.68 27 -30 27 C-29.67 26.01 -29.34 25.02 -29 24 C-27.37660195 22.29115995 -25.70680947 20.62553283 -24 19 C-23.443125 18.401875 -22.88625 17.80375 -22.3125 17.1875 C-21 16 -21 16 -19 16 C-18.67 15.01 -18.34 14.02 -18 13 C-16.5625 11.3125 -16.5625 11.3125 -15 10 C-14.34 10 -13.68 10 -13 10 C-13 9.01 -13 8.02 -13 7 C-13.66 6.67 -14.32 6.34 -15 6 C-13.35 5.67 -11.7 5.34 -10 5 C-10 4.34 -10 3.68 -10 3 C-4.73913043 -1.18478261 -4.73913043 -1.18478261 0 0 Z " fill="#0ED5E5" transform="translate(292,276)"/>
<path d="M0 0 C-1.57382782 3.86303192 -4.03989795 6.10461621 -7 9 C-8.10852474 10.10582909 -9.21561553 11.21309684 -10.3215332 12.3215332 C-19.21435547 21.21435547 -28.10717773 30.10717773 -37 39 C-37.99 38.67 -38.98 38.34 -40 38 C-34.63181251 32.58126115 -29.25592414 27.17025351 -23.87451172 21.76464844 C-22.04328357 19.92333894 -20.21385123 18.08024169 -18.38623047 16.23535156 C-15.76475271 13.58971926 -13.13696465 10.95050303 -10.5078125 8.3125 C-9.68693146 7.48129639 -8.86605042 6.65009277 -8.02029419 5.79370117 C-7.25965668 5.0329126 -6.49901917 4.27212402 -5.71533203 3.48828125 C-4.70939499 2.47568237 -4.70939499 2.47568237 -3.68313599 1.44262695 C-2 0 -2 0 0 0 Z " fill="#0AB5A3" transform="translate(193,38)"/>
<path d="M0 0 C-0.56435803 3.49149499 -1.5695622 4.81927927 -4.3125 7 C-8.14341815 10.19473679 -11.67988293 13.58539199 -15.1875 17.125 C-15.68612549 17.62773437 -16.18475098 18.13046875 -16.69848633 18.6484375 C-17.66644565 19.62620668 -18.63358926 20.60478418 -19.59985352 21.58422852 C-20.96971298 22.96937499 -22.34805121 24.34611991 -23.7265625 25.72265625 C-25.23388352 27.23256717 -26.72135502 28.7625753 -28.1875 30.3125 C-30 32 -30 32 -32 32 C-30.7237475 29.20574912 -29.40029023 27.14857874 -27.234375 24.97558594 C-26.68040039 24.41530701 -26.12642578 23.85502808 -25.55566406 23.277771 C-24.95979492 22.68595032 -24.36392578 22.09412964 -23.75 21.484375 C-23.13608398 20.86854553 -22.52216797 20.25271606 -21.88964844 19.6182251 C-20.59425517 18.32147354 -19.29634356 17.02723343 -17.99609375 15.73535156 C-16.00024932 13.75024798 -14.01533274 11.75466409 -12.03125 9.7578125 C-10.77147445 8.49935789 -9.51107899 7.24152346 -8.25 5.984375 C-7.65413086 5.3844574 -7.05826172 4.78453979 -6.44433594 4.16644287 C-2.22993247 0 -2.22993247 0 0 0 Z " fill="#0AB8A9" transform="translate(145,228)"/>
<path d="M0 0 C0.495 0.99 0.495 0.99 1 2 C-0.2047651 5.24435719 -1.90163826 7.00646393 -4.55078125 9.16796875 C-10.25781511 13.99620444 -15.3703645 19.38835523 -20.55273438 24.76757812 C-21.31263672 25.54166016 -22.07253906 26.31574219 -22.85546875 27.11328125 C-23.53246826 27.81235596 -24.20946777 28.51143066 -24.90698242 29.23168945 C-27.16930151 31.14303637 -29.20900499 32.05710039 -32 33 C-28.10023279 28.33125463 -24.04785356 23.90872191 -19.7265625 19.62890625 C-19.15795502 19.06171371 -18.58934753 18.49452118 -18.00350952 17.91014099 C-16.21303764 16.12520087 -14.41909516 14.34379744 -12.625 12.5625 C-11.39950677 11.34203061 -10.17424428 10.12132947 -8.94921875 8.90039062 C-5.96880226 5.93091244 -2.98527106 2.96459743 0 0 Z " fill="#3165B4" transform="translate(111,118)"/>
<path d="M0 0 C0.33 0.99 0.66 1.98 1 3 C-0.21484375 4.82421875 -0.21484375 4.82421875 -1.9375 6.6875 C-2.50339844 7.31011719 -3.06929687 7.93273437 -3.65234375 8.57421875 C-4.09707031 9.04472656 -4.54179688 9.51523438 -5 10 C-3.35 10 -1.7 10 0 10 C-1.95490358 11.95490358 -3.35394423 12.76698301 -5.8125 13.9375 C-8.9802089 15.47807974 -12.00984753 17.13115471 -15 19 C-15.33 18.01 -15.66 17.02 -16 16 C-10.72 10.72 -5.44 5.44 0 0 Z " fill="#1DC2E2" transform="translate(128,101)"/>
<path d="M0 0 C0.66 1.32 1.32 2.64 2 4 C-4.6 10.6 -11.2 17.2 -18 24 C-18.33 22.68 -18.66 21.36 -19 20 C-17.68 19.67 -16.36 19.34 -15 19 C-14.896875 18.360625 -14.79375 17.72125 -14.6875 17.0625 C-14.460625 16.381875 -14.23375 15.70125 -14 15 C-13.01 14.67 -12.02 14.34 -11 14 C-10.731875 13.443125 -10.46375 12.88625 -10.1875 12.3125 C-8.4734641 8.97464062 -5.98479819 6.2784719 -3 4 C-2.01 4 -1.02 4 0 4 C0 2.68 0 1.36 0 0 Z " fill="#3C3FA9" transform="translate(199,126)"/>
<path d="M0 0 C-4.95 4.95 -9.9 9.9 -15 15 C-15.66 14.34 -16.32 13.68 -17 13 C-16.34 12.01 -15.68 11.02 -15 10 C-14.34 10 -13.68 10 -13 10 C-13 9.01 -13 8.02 -13 7 C-13.66 6.67 -14.32 6.34 -15 6 C-13.35 5.67 -11.7 5.34 -10 5 C-10 4.34 -10 3.68 -10 3 C-4.73913043 -1.18478261 -4.73913043 -1.18478261 0 0 Z " fill="#15D3EE" transform="translate(292,276)"/>
<path d="M0 0 C0.33 0.66 0.66 1.32 1 2 C0.25556641 2.51046875 0.25556641 2.51046875 -0.50390625 3.03125 C-5.0751393 6.29269901 -8.66594429 9.7276291 -12.2578125 14.03125 C-14.91115919 17.02965074 -17.90177504 19.47083677 -21 22 C-21.66 21.67 -22.32 21.34 -23 21 C-20.21305818 18.1635971 -17.41957183 15.33382309 -14.61987305 12.51000977 C-13.66850843 11.54859153 -12.71894709 10.58538536 -11.77124023 9.62036133 C-10.40824879 8.2330945 -9.03819589 6.85277672 -7.66796875 5.47265625 C-6.84578857 4.64000244 -6.0236084 3.80734863 -5.17651367 2.94946289 C-3 1 -3 1 0 0 Z " fill="#0EA6B3" transform="translate(152,79)"/>
<path d="M0 0 C0.66 0 1.32 0 2 0 C4.13586678 3.20380017 4.23132175 4.01939967 4.125 7.6875 C4.10695313 8.49574219 4.08890625 9.30398437 4.0703125 10.13671875 C4.03550781 11.05904297 4.03550781 11.05904297 4 12 C3.01 12 2.02 12 1 12 C-1.22923777 7.67265609 -0.92470553 4.71599818 0 0 Z " fill="#2DCDE1" transform="translate(358,187)"/>
<path d="M0 0 C0.33 0.66 0.66 1.32 1 2 C0.67 2.66 0.34 3.32 0 4 C0.66 4.33 1.32 4.66 2 5 C-0.31 6.32 -2.62 7.64 -5 9 C-5.33 8.01 -5.66 7.02 -6 6 C-4.02 4.02 -2.04 2.04 0 0 Z " fill="#2794CA" transform="translate(118,111)"/>
<path d="M0 0 C-3.465 2.97 -3.465 2.97 -7 6 C-7.99 5.01 -8.98 4.02 -10 3 C-4.5 -1.125 -4.5 -1.125 0 0 Z " fill="#22B8EA" transform="translate(292,276)"/>
<path d="M0 0 C0.33 0.66 0.66 1.32 1 2 C-0.98 4.31 -2.96 6.62 -5 9 C-5.99 8.67 -6.98 8.34 -8 8 C-5.36 5.36 -2.72 2.72 0 0 Z " fill="#4531F1" transform="translate(210,257)"/>
<path d="M0 0 C0.33 0.99 0.66 1.98 1 3 C-0.40445835 5.2636564 -2.1967913 7.0208685 -4 9 C-4.8125 7.3125 -4.8125 7.3125 -5 5 C-2.5625 2.25 -2.5625 2.25 0 0 Z " fill="#16B0C6" transform="translate(128,101)"/>
<path d="M0 0 C0.33 1.32 0.66 2.64 1 4 C-0.65 5.32 -2.3 6.64 -4 8 C-4.33 7.01 -4.66 6.02 -5 5 C-4.01 4.67 -3.02 4.34 -2 4 C-0.79117904 1.99983534 -0.79117904 1.99983534 0 0 Z " fill="#4241B4" transform="translate(190,136)"/>
</svg>
